<svg xmlns="http://www.w3.org/2000/svg" width="375" viewBox="0 0 375 375" height="375" version="1.0"><defs><clipPath id="a"><path d="M 16 21 L 359 21 L 359 367.210938 L 16 367.210938 Z M 16 21"/></clipPath><clipPath id="b"><path d="M 119 7.960938 L 256 7.960938 L 256 122 L 119 122 Z M 119 7.960938"/></clipPath></defs><g clip-path="url(#a)"><path fill="#4B98B2" d="M 160.703125 360.46875 C 150.234375 364.804688 137.835938 367.210938 124.59375 367.210938 C 111.355469 367.210938 95.105469 364.683594 84.511719 360.46875 L 84.632812 360.46875 L 84.632812 312.3125 C 84.632812 312.3125 42.625 261.027344 26.015625 227.558594 C 8.441406 192.160156 16.265625 138.464844 33.839844 92.839844 C 52.132812 45.28125 63.929688 17.351562 82.707031 22.046875 C 104.253906 27.34375 91.492188 59.488281 78.496094 99.941406 C 60.558594 155.441406 91.613281 199.988281 107.140625 206.488281 C 122.667969 212.988281 107.863281 182.769531 99.316406 150.625 C 94.140625 131.121094 117.492188 114.871094 131.816406 147.976562 C 151.675781 194.085938 161.425781 217.804688 160.585938 258.378906 C 160.222656 282.695312 160.703125 360.46875 160.703125 360.46875 Z M 214.265625 360.46875 C 224.738281 364.804688 237.136719 367.210938 250.378906 367.210938 C 263.617188 367.210938 279.867188 364.683594 290.460938 360.46875 L 290.339844 360.46875 L 290.339844 312.3125 C 290.339844 312.3125 332.347656 261.027344 348.957031 227.558594 C 366.53125 192.160156 358.707031 138.464844 341.132812 92.839844 C 322.957031 45.28125 311.042969 17.351562 292.265625 22.046875 C 270.71875 27.34375 283.476562 59.488281 296.476562 99.941406 C 314.410156 155.441406 283.355469 199.988281 267.832031 206.488281 C 252.304688 212.988281 267.109375 182.769531 275.652344 150.625 C 280.828125 131.121094 257.480469 114.871094 243.15625 147.976562 C 223.292969 194.085938 213.546875 217.804688 214.386719 258.378906 C 214.75 282.695312 214.265625 360.46875 214.265625 360.46875 Z M 214.265625 360.46875"/></g><g clip-path="url(#b)"><path fill="#BFE063" d="M 164.554688 76.585938 C 183.695312 95.605469 177.433594 120.648438 177.433594 120.648438 C 177.433594 120.648438 152.519531 126.910156 133.382812 107.765625 C 114.242188 88.625 120.621094 63.703125 120.621094 63.703125 C 120.621094 63.703125 145.539062 57.5625 164.554688 76.585938 Z M 210.414062 76.464844 C 191.398438 95.488281 197.535156 120.527344 197.535156 120.527344 C 197.535156 120.527344 222.453125 126.789062 241.589844 107.644531 C 260.730469 88.503906 254.46875 63.703125 254.46875 63.703125 C 254.46875 63.703125 229.554688 57.441406 210.414062 76.464844 Z M 165.519531 48.171875 C 165.519531 75.140625 187.546875 88.382812 187.546875 88.382812 C 187.546875 88.382812 209.574219 75.140625 209.574219 48.171875 C 209.574219 21.203125 187.546875 7.960938 187.546875 7.960938 C 187.546875 7.960938 165.519531 21.203125 165.519531 48.171875 Z M 165.519531 48.171875"/></g></svg>